<?xml version="1.0" encoding="UTF-8" standalone="no"?>
<!DOCTYPE svg PUBLIC "-//W3C//DTD SVG 1.1//EN" "http://www.w3.org/Graphics/SVG/1.1/DTD/svg11.dtd">
<svg width="100%" height="100%" viewBox="0 0 356 455" version="1.1" xmlns="http://www.w3.org/2000/svg" xmlns:xlink="http://www.w3.org/1999/xlink" xml:space="preserve" xmlns:serif="http://www.serif.com/" style="fill-rule:evenodd;clip-rule:evenodd;stroke-linejoin:round;stroke-miterlimit:2;">
    <g transform="matrix(1,0,0,1,-66.393602,-1551)">
        <g transform="matrix(4.573151,0,0,4.573151,-9284.07758,-7416.949916)">
            <g transform="matrix(0.051829,0,0,0.115721,2041.014752,1966.172482)">
                <path d="M161.397,254.967L181.608,254.967L184.033,316.851L272.962,316.851L235.774,59L107.231,59L70.042,316.851L158.971,316.851L161.397,254.967ZM162.205,219.236L166.247,111.675L176.757,111.675L180.799,219.236L162.205,219.236Z" style="fill:rgb(93,93,146);"/>
                <path d="M361.891,103.203L285.089,103.203L285.089,294.749C285.089,310.221 304.491,319.798 336.021,319.798C357.849,319.798 370.784,315.009 378.06,304.327L379.677,304.327L379.677,316.851L457.288,316.851L457.288,103.203L379.677,103.203L379.677,276.332C379.677,281.12 374.826,282.225 370.784,282.225C365.933,282.225 361.891,281.12 361.891,276.332L361.891,103.203Z" style="fill:rgb(93,93,146);"/>
                <path d="M482.349,247.6C482.349,263.071 494.476,274.858 516.304,282.225C492.051,286.277 474.265,296.223 474.265,309.852C474.265,318.693 481.541,327.165 493.668,329.744C479.116,334.532 471.84,340.426 471.84,348.53C471.84,364.001 497.71,371.736 546.217,371.736L589.064,371.736C656.165,371.736 682.844,361.054 682.844,334.532C682.844,308.747 656.165,298.065 587.447,298.065L557.535,298.065C537.324,298.065 534.09,295.855 534.09,293.644C534.09,290.698 548.642,290.329 548.642,290.329C626.253,290.329 653.74,275.595 653.74,247.968L653.74,150.721C653.74,141.144 652.123,129.725 645.655,125.305L657.782,125.305L657.782,95.836C654.548,95.836 645.655,95.099 627.061,96.204C609.275,96.941 601.191,98.414 582.597,98.414C519.538,98.414 482.349,115.359 482.349,144.091L482.349,247.6ZM559.96,250.915L559.96,138.565C559.96,130.093 564.811,128.988 568.853,128.988C572.087,128.988 576.129,130.093 576.129,137.829L576.129,250.915C576.129,258.282 572.087,259.755 568.853,259.755C564.811,259.755 559.96,258.282 559.96,250.915ZM531.665,331.217L598.765,331.217C615.743,331.217 618.168,332.69 618.168,335.637C618.168,338.216 615.743,340.058 598.765,340.058L535.707,340.058C521.155,340.058 517.921,338.584 517.921,336.006C517.921,333.427 521.963,331.217 531.665,331.217Z" style="fill:rgb(93,93,146);"/>
                <path d="M761.263,103.203L684.461,103.203L684.461,294.749C684.461,310.221 703.863,319.798 735.393,319.798C757.221,319.798 770.156,315.009 777.432,304.327L779.049,304.327L779.049,316.851L856.66,316.851L856.66,103.203L779.049,103.203L779.049,276.332C779.049,281.12 774.198,282.225 770.156,282.225C765.305,282.225 761.263,281.12 761.263,276.332L761.263,103.203Z" style="fill:rgb(93,93,146);"/>
                <path d="M1005.414,141.512L1005.414,99.519L990.053,99.519C973.076,99.519 960.141,103.571 952.865,116.464L951.248,116.464L951.248,103.203L873.637,103.203L873.637,316.851L951.248,316.851L951.248,154.773C951.248,144.459 959.332,141.512 988.436,141.512L1005.414,141.512Z" style="fill:rgb(93,93,146);"/>
                <path d="M1095.959,103.203L1018.349,103.203L1018.349,316.851L1095.959,316.851L1095.959,103.203ZM1018.349,96.204L1095.959,96.204L1095.959,77.418L1018.349,77.418L1018.349,96.204Z" style="fill:rgb(93,93,146);"/>
                <path d="M1112.937,278.173C1112.937,303.958 1148.508,320.535 1203.483,320.535C1256.84,320.535 1294.028,303.59 1294.028,278.173L1294.028,141.512C1294.028,116.096 1257.648,99.519 1203.483,99.519C1149.317,99.519 1112.937,116.096 1112.937,141.881L1112.937,278.173ZM1193.781,274.858L1193.781,145.196C1193.781,137.46 1199.44,136.355 1203.483,136.355C1208.333,136.355 1213.184,137.46 1213.184,144.828L1213.184,274.858C1213.184,282.225 1208.333,283.699 1203.483,283.699C1199.44,283.699 1193.781,282.225 1193.781,274.858Z" style="fill:rgb(93,93,146);"/>
                <rect x="1314.24" y="278.91" width="80.845" height="37.573" style="fill:rgb(93,93,146);"/>
            </g>
            <g transform="matrix(0.051829,0,0,0.115721,2104.483404,1954.172482)">
                <path d="M243.637,59L243.637,99.109L329.692,85.44L345.482,105.405L259.427,118.175L312.718,151.989L273.638,164.759L221.926,129.686L169.819,164.759L129.555,151.989L183.635,118.175L96.79,105.405L112.58,85.44L197.846,99.469L197.846,59L243.637,59Z" style="fill:rgb(93,93,146);"/>
            </g>
            <g transform="matrix(0.179841,0,0,0.29526,1673.031567,1930.135547)">
                <path d="M2105.403,332.651C2119.942,332.651 2132.295,325.471 2132.295,313.346C2132.295,301.56 2120.707,294.041 2106.058,294.041C2096.876,294.041 2089.442,296.818 2085.507,300.679L2084.742,300.476L2083.648,294.718L2075.45,294.718L2075.45,345.521L2084.742,345.521L2084.742,326.148L2085.507,325.945C2087.803,328.655 2094.58,332.651 2105.403,332.651ZM2103.872,327.503C2092.066,327.503 2084.742,322.22 2084.742,315.717L2084.742,310.23C2084.742,304.947 2091.629,299.189 2103.763,299.189C2115.678,299.189 2122.784,305.218 2122.784,313.414C2122.784,321.881 2115.132,327.503 2103.872,327.503Z" style="fill:rgb(93,93,146);fill-rule:nonzero;"/>
                <path d="M2173.07,332.651C2186.188,332.651 2193.949,328.655 2196.901,323.371L2190.232,320.865C2188.483,323.71 2184.657,327.571 2173.179,327.571C2161.264,327.571 2153.611,323.1 2152.627,315.107L2198.431,315.107L2198.541,311.179C2198.869,300.137 2186.297,294.041 2171.539,294.041C2156.563,294.041 2143.226,301.018 2143.226,313.414C2143.226,325.674 2155.688,332.651 2173.07,332.651ZM2152.955,310.162C2154.704,302.915 2162.794,299.121 2171.867,299.121C2183.236,299.121 2190.014,303.931 2190.014,309.621L2190.014,310.162L2152.955,310.162Z" style="fill:rgb(93,93,146);fill-rule:nonzero;"/>
                <path d="M2252.652,307.995L2252.652,331.974L2261.835,331.974L2261.835,306.64C2261.835,297.767 2250.903,294.041 2238.988,294.041C2228.712,294.041 2223.137,296.818 2219.201,299.663L2218.436,299.46L2217.343,294.718L2209.144,294.718L2209.144,331.974L2218.436,331.974L2218.436,307.859C2220.513,303.524 2226.744,299.325 2237.457,299.325C2244.672,299.325 2252.652,301.289 2252.652,307.995Z" style="fill:rgb(93,93,146);fill-rule:nonzero;"/>
                <path d="M2296.161,332.651C2312.23,332.651 2320.101,327.164 2320.101,320.797C2320.101,306.911 2282.715,313.075 2282.715,304.473C2282.715,301.086 2288.29,298.579 2296.379,298.579C2303.266,298.579 2309.497,300.341 2311.246,305.421L2319.117,303.998C2317.149,296.886 2307.202,294.041 2296.707,294.041C2284.245,294.041 2273.751,297.699 2273.751,305.082C2273.751,318.765 2311.465,311.788 2311.465,321.339C2311.465,324.794 2306.436,328.113 2296.598,328.113C2286.213,328.113 2281.294,324.387 2279.763,321.136L2271.236,322.22C2273.423,328.655 2282.277,332.651 2296.161,332.651Z" style="fill:rgb(93,93,146);fill-rule:nonzero;"/>
                <path d="M2369.403,331.974L2376.727,331.974L2376.727,306.505C2376.727,297.496 2365.03,294.041 2352.568,294.041C2339.232,294.041 2329.393,298.85 2327.316,305.014L2335.296,306.234C2337.373,302.508 2342.402,299.121 2352.131,299.121C2360.876,299.121 2367.545,301.628 2367.545,307.656L2367.545,308.198C2367.545,309.011 2367.107,309.35 2365.577,309.485L2344.151,311.653C2335.843,312.466 2327.753,315.243 2327.753,322.016C2327.753,328.384 2335.296,332.651 2348.851,332.651C2356.504,332.651 2363.609,330.687 2367.435,326.487L2368.31,326.758L2368.31,326.826L2369.403,331.974ZM2336.717,321.475C2336.717,317.749 2341.09,316.123 2347.43,315.446L2367.545,313.143L2367.545,316.259C2367.545,324.252 2360.876,328.451 2350.928,328.451C2341.855,328.451 2336.717,325.674 2336.717,321.475Z" style="fill:rgb(93,93,146);fill-rule:nonzero;"/>
                <path d="M2389.08,331.974L2398.372,331.974L2398.372,308.537C2399.574,304.202 2404.931,299.934 2415.207,299.934L2418.049,299.934L2418.049,294.718L2415.207,294.718C2406.899,294.718 2402.307,296.818 2399.137,300.544L2398.372,300.341L2398.372,294.718L2389.08,294.718L2389.08,331.974Z" style="fill:rgb(93,93,146);fill-rule:nonzero;"/>
                <path d="M2095.783,386.163L2104.747,386.163L2104.747,380.744L2098.188,380.744C2093.487,380.744 2091.957,379.322 2091.957,376.545L2091.957,354.124L2106.605,354.124L2106.605,348.908L2091.847,348.908L2091.847,340.509L2084.632,340.509L2083.539,348.908L2072.389,348.908L2072.389,354.124L2082.774,354.124L2082.774,376.206C2082.774,381.896 2085.288,386.163 2095.783,386.163Z" style="fill:rgb(93,93,146);fill-rule:nonzero;"/>
                <path d="M2145.824,386.841C2163.315,386.841 2177.854,380.338 2177.854,367.536C2177.854,354.733 2163.205,348.231 2145.824,348.231C2128.333,348.231 2113.794,354.733 2113.794,367.536C2113.794,380.27 2128.333,386.841 2145.824,386.841ZM2145.824,381.625C2133.471,381.625 2123.305,377.154 2123.305,367.603C2123.305,357.917 2133.471,353.446 2145.824,353.446C2158.067,353.446 2168.343,357.849 2168.343,367.603C2168.343,377.154 2158.177,381.625 2145.824,381.625Z" style="fill:rgb(93,93,146);fill-rule:nonzero;"/>
                <path d="M2215.677,386.841C2226.5,386.841 2233.277,382.776 2235.573,380.135L2236.338,380.338L2237.432,386.163L2245.63,386.163L2245.63,337.189L2236.338,337.189L2236.338,354.666L2235.573,354.869C2231.747,351.075 2224.313,348.231 2215.022,348.231C2200.373,348.231 2188.785,355.682 2188.785,367.536C2188.785,379.593 2201.138,386.841 2215.677,386.841ZM2217.317,381.693C2205.948,381.693 2198.296,376.138 2198.296,367.603C2198.296,359.407 2205.292,353.379 2217.317,353.379C2229.451,353.379 2236.338,359.068 2236.338,364.42L2236.338,369.906C2236.338,376.409 2229.123,381.693 2217.317,381.693Z" style="fill:rgb(93,93,146);fill-rule:nonzero;"/>
                <path d="M2289.357,386.841C2306.848,386.841 2321.387,380.338 2321.387,367.536C2321.387,354.733 2306.738,348.231 2289.357,348.231C2271.866,348.231 2257.327,354.733 2257.327,367.536C2257.327,380.27 2271.866,386.841 2289.357,386.841ZM2289.357,381.625C2277.004,381.625 2266.838,377.154 2266.838,367.603C2266.838,357.917 2277.004,353.446 2289.357,353.446C2301.601,353.446 2311.876,357.849 2311.876,367.603C2311.876,377.154 2301.71,381.625 2289.357,381.625Z" style="fill:rgb(93,93,146);fill-rule:nonzero;"/>
                <path d="M2354.943,386.841C2371.013,386.841 2378.884,381.354 2378.884,374.987C2378.884,361.101 2341.497,367.265 2341.497,358.662C2341.497,355.275 2347.072,352.769 2355.162,352.769C2362.049,352.769 2368.28,354.53 2370.029,359.61L2377.9,358.188C2375.932,351.075 2365.984,348.231 2355.49,348.231C2343.028,348.231 2332.533,351.888 2332.533,359.272C2332.533,372.954 2370.248,365.978 2370.248,375.528C2370.248,378.983 2365.219,382.302 2355.38,382.302C2344.995,382.302 2340.076,378.577 2338.546,375.325L2330.019,376.409C2332.205,382.844 2341.06,386.841 2354.943,386.841Z" style="fill:rgb(93,93,146);fill-rule:nonzero;"/>
                <path d="M2386.754,390.634L2389.597,392.801C2394.188,390.16 2396.593,387.721 2396.593,384.334L2396.593,380.338L2386.973,380.338L2386.973,386.163L2391.564,386.163C2391.018,387.857 2389.269,389.076 2386.754,390.634Z" style="fill:rgb(93,93,146);fill-rule:nonzero;"/>
                <path d="M2095.783,440.353L2104.747,440.353L2104.747,434.934L2098.188,434.934C2093.487,434.934 2091.957,433.511 2091.957,430.734L2091.957,408.313L2106.605,408.313L2106.605,403.097L2091.847,403.097L2091.847,394.698L2084.632,394.698L2083.539,403.097L2072.389,403.097L2072.389,408.313L2082.774,408.313L2082.774,430.395C2082.774,436.085 2085.288,440.353 2095.783,440.353Z" style="fill:rgb(93,93,146);fill-rule:nonzero;"/>
                <path d="M2145.824,441.03C2163.315,441.03 2177.854,434.527 2177.854,421.725C2177.854,408.923 2163.205,402.42 2145.824,402.42C2128.333,402.42 2113.794,408.923 2113.794,421.725C2113.794,434.459 2128.333,441.03 2145.824,441.03ZM2145.824,435.814C2133.471,435.814 2123.305,431.344 2123.305,421.793C2123.305,412.106 2133.471,407.636 2145.824,407.636C2158.067,407.636 2168.343,412.039 2168.343,421.793C2168.343,431.344 2158.177,435.814 2145.824,435.814Z" style="fill:rgb(93,93,146);fill-rule:nonzero;"/>
                <path d="M2215.677,441.03C2226.5,441.03 2233.277,436.966 2235.573,434.324L2236.338,434.527L2237.432,440.353L2245.63,440.353L2245.63,391.379L2236.338,391.379L2236.338,408.855L2235.573,409.058C2231.747,405.265 2224.313,402.42 2215.022,402.42C2200.373,402.42 2188.785,409.871 2188.785,421.725C2188.785,433.782 2201.138,441.03 2215.677,441.03ZM2217.317,435.882C2205.948,435.882 2198.296,430.328 2198.296,421.793C2198.296,413.597 2205.292,407.568 2217.317,407.568C2229.451,407.568 2236.338,413.258 2236.338,418.609L2236.338,424.096C2236.338,430.598 2229.123,435.882 2217.317,435.882Z" style="fill:rgb(93,93,146);fill-rule:nonzero;"/>
                <path d="M2289.357,441.03C2306.848,441.03 2321.387,434.527 2321.387,421.725C2321.387,408.923 2306.738,402.42 2289.357,402.42C2271.866,402.42 2257.327,408.923 2257.327,421.725C2257.327,434.459 2271.866,441.03 2289.357,441.03ZM2289.357,435.814C2277.004,435.814 2266.838,431.344 2266.838,421.793C2266.838,412.106 2277.004,407.636 2289.357,407.636C2301.601,407.636 2311.876,412.039 2311.876,421.793C2311.876,431.344 2301.71,435.814 2289.357,435.814Z" style="fill:rgb(93,93,146);fill-rule:nonzero;"/>
                <rect x="2326.794" y="434.527" width="9.511" height="5.825" style="fill:rgb(93,93,146);fill-rule:nonzero;"/>
            </g>
        </g>
    </g>
</svg>
