<?xml version="1.0" encoding="UTF-8" standalone="no"?>
<!DOCTYPE svg PUBLIC "-//W3C//DTD SVG 1.1//EN" "http://www.w3.org/Graphics/SVG/1.1/DTD/svg11.dtd">
<svg width="100%" height="100%" viewBox="0 0 373 477" version="1.1" xmlns="http://www.w3.org/2000/svg" xmlns:xlink="http://www.w3.org/1999/xlink" xml:space="preserve" xmlns:serif="http://www.serif.com/" style="fill-rule:evenodd;clip-rule:evenodd;stroke-linejoin:round;stroke-miterlimit:2;">
    <g transform="matrix(1,0,0,1,-1425.4402,-1869)">
        <g transform="matrix(1,0,0,4.653935,0,-6679.393519)">
            <g transform="matrix(4.795567,0,0,1.030433,-8379.791475,-183.868688)">
                <g transform="matrix(0.616196,0,0,0.626863,2003.766588,1936.015078)">
                    <g transform="matrix(68,0,0,68,178.676,106.6)">
                    </g>
                    <text x="66px" y="106.6px" style="font-family:'Djingo-Regular', 'Djingo';font-size:68px;fill:#5D5D92;">Aug<tspan x="117.34px " y="106.6px ">u</tspan>rio.</text>
                </g>
                <g transform="matrix(0.051829,0,0,0.115721,2104.483404,1954.172482)">
                    <path d="M243.637,59L243.637,99.109L329.692,85.44L345.482,105.405L259.427,118.175L312.718,151.989L273.638,164.759L221.926,129.686L169.819,164.759L129.555,151.989L183.635,118.175L96.79,105.405L112.58,85.44L197.846,99.469L197.846,59L243.637,59Z" style="fill:#5D5D92;fill-rule:nonzero;"/>
                </g>
            </g>
        </g>
        <g transform="matrix(1,0,0,4.653935,0,-6679.393519)">
            <g transform="matrix(3.519658,0,0,0.759887,-5854.443563,1676.059551)">
                <g transform="matrix(0.987677,0,0,1,25.49657,0)">
                    <text x="2069px" y="302.608px" style="font-family:'Helvena-Rg', 'Helvena', sans-serif;font-size:27.121px;fill:#BBBBC6;">pensar</text>
                </g>
                <g transform="matrix(0.987677,0,0,1,25.49657,0)">
                    <text x="2069px" y="324.305px" style="font-family:'Helvena-Rg', 'Helvena', sans-serif;font-size:27.121px;fill:#BBBBC6;">t<tspan x="2078.757px " y="324.305px ">o</tspan>dos,</text>
                </g>
                <g transform="matrix(0.987677,0,0,1,25.49657,0)">
                    <g transform="matrix(27.120673,0,0,27.120673,2141.90651,346.001323)">
                    </g>
                    <text x="2069px" y="346.001px" style="font-family:'Helvena-Rg', 'Helvena', sans-serif;font-size:27.121px;fill:#BBBBC6;">t<tspan x="2078.757px " y="346.001px ">o</tspan>do<tspan x="2131.79px " y="346.001px ">.</tspan></text>
                </g>
            </g>
        </g>
    </g>
</svg>
