<?xml version="1.0" encoding="UTF-8" standalone="no"?>
<!DOCTYPE svg PUBLIC "-//W3C//DTD SVG 1.1//EN" "http://www.w3.org/Graphics/SVG/1.1/DTD/svg11.dtd">
<svg width="100%" height="100%" viewBox="0 0 714 258" version="1.1" xmlns="http://www.w3.org/2000/svg" xmlns:xlink="http://www.w3.org/1999/xlink" xml:space="preserve" xmlns:serif="http://www.serif.com/" style="fill-rule:evenodd;clip-rule:evenodd;stroke-linejoin:round;stroke-miterlimit:2;">
    <g transform="matrix(1,0,0,1,-1014.744,-641.085158)">
        <g transform="matrix(1.263021,0,0,1.399306,-2002.151042,0)">
            <g transform="matrix(1.888037,0,0,1.888037,-1000.052865,356.413776)">
                <g transform="matrix(0.791753,0,0,0.157276,1006.437113,27.021125)">
                    <path d="M1032.704,693.38L1039.136,693.38L1039.136,529.365C1039.136,471.349 1028.864,449.102 1017.92,449.102C1006.208,449.102 997.568,480.073 995.744,519.768L1002.752,527.62C1004.576,503.629 1008.992,481.818 1017.536,481.818C1025.216,481.818 1031.072,497.958 1031.072,536.781L1031.072,540.27C1031.072,545.505 1030.688,547.686 1029.344,548.558L1010.528,562.517C1003.232,567.752 996.128,585.636 996.128,629.257C996.128,670.261 1002.752,697.742 1014.656,697.742C1021.376,697.742 1027.616,685.092 1030.976,658.047L1031.744,659.792L1031.744,660.228L1032.704,693.38ZM1004,625.768C1004,601.776 1007.84,591.307 1013.408,586.945L1031.072,572.114L1031.072,592.179C1031.072,643.652 1025.216,670.697 1016.48,670.697C1008.512,670.697 1004,652.813 1004,625.768Z" style="fill:rgb(246,236,200);fill-rule:nonzero;"/>
                    <path d="M1070.048,697.742C1078.688,697.742 1084.064,679.421 1087.808,658.047L1088.48,659.356L1088.48,659.792L1089.44,693.38L1096.64,693.38L1096.64,453.464L1088.48,453.464L1088.48,611.809C1086.176,639.29 1079.648,661.101 1071.488,661.101C1065.248,661.101 1058.528,649.759 1058.528,606.574L1058.528,453.464L1050.368,453.464L1050.368,616.607C1050.368,678.113 1061.696,697.742 1070.048,697.742Z" style="fill:rgb(246,236,200);fill-rule:nonzero;"/>
                    <path d="M1133.312,791.091C1148.384,791.091 1156.736,760.12 1156.736,692.508L1156.736,453.464L1149.632,453.464L1148.672,490.542L1147.904,491.851C1144.64,467.859 1138.016,449.102 1130.048,449.102C1117.28,449.102 1107.104,497.085 1107.104,572.114C1107.104,641.907 1117.76,686.837 1130.528,686.837C1139.936,686.837 1146.08,661.537 1148.096,644.525L1148.864,645.833L1148.864,693.816C1148.864,739.619 1143.584,759.248 1133.504,759.248C1123.328,759.248 1119.008,738.31 1117.184,714.755L1109.888,722.17C1112.192,761.865 1119.008,791.091 1133.312,791.091ZM1131.968,653.685C1122.176,653.685 1115.456,617.916 1115.456,571.241C1115.456,521.949 1121.6,482.691 1131.968,482.691C1142.432,482.691 1148.672,519.332 1148.672,551.612L1148.672,586.945C1148.672,619.661 1142.144,653.685 1131.968,653.685Z" style="fill:rgb(246,236,200);fill-rule:nonzero;"/>
                    <path d="M1188.128,697.742C1196.768,697.742 1202.144,679.421 1205.888,658.047L1206.56,659.356L1206.56,659.792L1207.52,693.38L1214.72,693.38L1214.72,453.464L1206.56,453.464L1206.56,611.809C1204.256,639.29 1197.728,661.101 1189.568,661.101C1183.328,661.101 1176.608,649.759 1176.608,606.574L1176.608,453.464L1168.448,453.464L1168.448,616.607C1168.448,678.113 1179.776,697.742 1188.128,697.742Z" style="fill:rgb(246,236,200);fill-rule:nonzero;"/>
                    <path d="M1226.048,693.38L1234.208,693.38L1234.208,542.451C1235.264,514.534 1239.968,487.053 1248.992,487.053L1251.488,487.053L1251.488,453.464L1248.992,453.464C1241.696,453.464 1237.664,466.987 1234.88,490.979L1234.208,489.67L1234.208,453.464L1226.048,453.464L1226.048,693.38Z" style="fill:rgb(246,236,200);fill-rule:nonzero;"/>
                    <path d="M1259.168,693.38L1267.328,693.38L1267.328,453.464L1259.168,453.464L1259.168,693.38ZM1258.592,413.333L1268.096,413.333L1268.096,375.819L1258.592,375.819L1258.592,413.333Z" style="fill:rgb(246,236,200);fill-rule:nonzero;"/>
                    <path d="M1305.92,697.742C1321.28,697.742 1334.048,655.866 1334.048,573.422C1334.048,490.979 1321.184,449.102 1305.92,449.102C1290.56,449.102 1277.792,490.979 1277.792,573.422C1277.792,655.43 1290.56,697.742 1305.92,697.742ZM1305.92,664.154C1295.072,664.154 1286.144,635.364 1286.144,573.859C1286.144,511.48 1295.072,482.691 1305.92,482.691C1316.672,482.691 1325.696,511.044 1325.696,573.859C1325.696,635.364 1316.768,664.154 1305.92,664.154Z" style="fill:rgb(246,236,200);fill-rule:nonzero;"/>
                    <rect x="1338.848" y="655.866" width="8.352" height="37.514" style="fill:rgb(246,236,200);fill-rule:nonzero;"/>
                </g>
                <g transform="matrix(0.166704,0,0,0.150468,1876.540216,-64.836908)">
                    <path d="M1189.5,789C1268.7,789 1319,858.3 1301,936.5C1283.234,1013.682 1238.7,1050 1159.5,1050C1080.3,1050 1021.88,988.832 1043,912.5C1071,811.3 1110.3,789 1189.5,789Z" style="fill:rgb(246,236,200);"/>
                </g>
            </g>
        </g>
    </g>
</svg>
